<svg width="35" height="35" viewBox="0 0 35 35" fill="none" xmlns="http://www.w3.org/2000/svg">
<path d="M18.9993 2.91699C20.64 2.92137 21.4727 2.93012 22.1916 2.95053L22.4746 2.96074C22.8012 2.97241 23.1235 2.98699 23.5129 3.00449C25.0646 3.07741 26.1233 3.32241 27.0523 3.68262C28.0148 4.05303 28.8256 4.5547 29.6364 5.36408C30.3783 6.09285 30.9521 6.97476 31.3179 7.94824C31.6781 8.8772 31.9231 9.93595 31.996 11.4891C32.0135 11.877 32.0281 12.1993 32.0398 12.5274L32.0485 12.8103C32.0704 13.5278 32.0791 14.3605 32.0821 16.0012L32.0835 17.0891V18.9995C32.0871 20.0632 32.0759 21.1269 32.05 22.1903L32.0412 22.4732C32.0296 22.8014 32.015 23.1237 31.9975 23.5116C31.9246 25.0647 31.6766 26.122 31.3179 27.0524C30.9521 28.0259 30.3783 28.9078 29.6364 29.6366C28.9077 30.3784 28.0257 30.9523 27.0523 31.318C26.1233 31.6782 25.0646 31.9232 23.5129 31.9962L22.4746 32.0399L22.1916 32.0487C21.4727 32.0691 20.64 32.0793 18.9993 32.0822L17.9114 32.0837H16.0025C14.9383 32.0874 13.8741 32.0762 12.8102 32.0501L12.5273 32.0414C12.1811 32.0283 11.835 32.0132 11.4889 31.9962C9.93726 31.9232 8.87851 31.6782 7.94809 31.318C6.97514 30.9521 6.09374 30.3782 5.36539 29.6366C4.62302 28.9079 4.04867 28.026 3.68247 27.0524C3.32226 26.1234 3.07726 25.0647 3.00435 23.5116L2.9606 22.4732L2.9533 22.1903C2.92642 21.1269 2.91427 20.0632 2.91685 18.9995V16.0012C2.91281 14.9375 2.9235 13.8737 2.94893 12.8103L2.95914 12.5274C2.9708 12.1993 2.98539 11.877 3.00289 11.4891C3.0758 9.93595 3.3208 8.87866 3.68101 7.94824C4.04807 6.97436 4.62342 6.09242 5.36685 5.36408C6.09478 4.62258 6.97566 4.04877 7.94809 3.68262C8.87851 3.32241 9.9358 3.07741 11.4889 3.00449C11.8768 2.98699 12.2006 2.97241 12.5273 2.96074L12.8102 2.95199C13.8736 2.92608 14.9373 2.9149 16.001 2.91845L18.9993 2.91699ZM17.5002 10.2087C15.5663 10.2087 13.7116 10.9769 12.3442 12.3443C10.9767 13.7118 10.2085 15.5665 10.2085 17.5003C10.2085 19.4342 10.9767 21.2889 12.3442 22.6563C13.7116 24.0238 15.5663 24.792 17.5002 24.792C19.434 24.792 21.2887 24.0238 22.6562 22.6563C24.0236 21.2889 24.7918 19.4342 24.7918 17.5003C24.7918 15.5665 24.0236 13.7118 22.6562 12.3443C21.2887 10.9769 19.434 10.2087 17.5002 10.2087ZM17.5002 13.1253C18.0747 13.1252 18.6436 13.2383 19.1745 13.4581C19.7053 13.6778 20.1877 14 20.594 14.4062C21.0003 14.8124 21.3226 15.2947 21.5426 15.8254C21.7626 16.3562 21.8758 16.9251 21.8759 17.4996C21.876 18.0741 21.7629 18.6431 21.5432 19.1739C21.3234 19.7047 21.0012 20.1871 20.595 20.5934C20.1888 20.9997 19.7066 21.3221 19.1758 21.542C18.6451 21.762 18.0762 21.8752 17.5016 21.8753C16.3413 21.8753 15.2285 21.4144 14.408 20.5939C13.5876 19.7734 13.1266 18.6606 13.1266 17.5003C13.1266 16.34 13.5876 15.2272 14.408 14.4067C15.2285 13.5863 16.3413 13.1253 17.5016 13.1253M25.1579 8.02116C24.6744 8.02116 24.2108 8.21322 23.8689 8.55508C23.527 8.89694 23.335 9.36061 23.335 9.84408C23.335 10.3275 23.527 10.7912 23.8689 11.1331C24.2108 11.4749 24.6744 11.667 25.1579 11.667C25.6414 11.667 26.105 11.4749 26.4469 11.1331C26.7887 10.7912 26.9808 10.3275 26.9808 9.84408C26.9808 9.36061 26.7887 8.89694 26.4469 8.55508C26.105 8.21322 25.6414 8.02116 25.1579 8.02116Z" fill="#680001"/>
</svg>
