<svg width="205" height="88" viewBox="0 0 205 88" fill="none" xmlns="http://www.w3.org/2000/svg">
<path d="M11.34 87.88C9.78 87.88 8.22 87.62 6.66 87.1C5.01333 86.6667 3.67 85.8 2.63 84.5C1.50333 83.2867 0.94 81.5967 0.94 79.43C0.94 78.2167 1.41667 76.8733 2.37 75.4C3.23667 73.84 4.32 73.06 5.62 73.06C4.92667 74.1 4.58 75.3567 4.58 76.83C4.58 78.39 5.23 79.69 6.53 80.73C7.83 81.8567 9.91 82.42 12.77 82.42C16.0633 82.42 19.53 81.4667 23.17 79.56C26.81 77.74 30.4933 75.3133 34.22 72.28C37.9467 69.16 41.5867 65.7367 45.14 62.01C48.6933 58.2833 51.9867 54.5133 55.02 50.7C58.4867 46.3667 61.9967 42.12 65.55 37.96C69.1033 33.8 72.5267 30.0733 75.82 26.78C79.2 23.4 82.19 20.8 84.79 18.98C85.6567 18.3733 87.0867 17.3767 89.08 15.99C91.16 14.6033 93.8033 13.3467 97.01 12.22C93.8033 12.3067 90.4233 12.2633 86.87 12.09C83.4033 11.83 80.0233 11.4833 76.73 11.05C74.91 10.79 73.0467 10.5733 71.14 10.4C69.2333 10.2267 67.2833 10.14 65.29 10.14C60.0033 10.14 55.02 10.8333 50.34 12.22C45.66 13.6067 42.0633 16.0333 39.55 19.5C38.0767 21.58 37.34 23.6167 37.34 25.61C37.34 26.9967 37.6433 28.1233 38.25 28.99C38.5967 29.3367 38.9867 29.7267 39.42 30.16C39.8533 30.5067 40.2 30.68 40.46 30.68C40.1133 31.0267 39.68 31.2 39.16 31.2C38.5533 31.2 37.9467 31.07 37.34 30.81C36.82 30.4633 36.3867 30.1167 36.04 29.77C35.1733 28.8167 34.5233 27.7333 34.09 26.52C33.6567 25.22 33.44 23.9633 33.44 22.75C33.44 20.3233 34.0467 18.2867 35.26 16.64C37.6867 13.3467 40.8067 10.92 44.62 9.36C48.4333 7.8 53.2433 7.02 59.05 7.02C61.5633 7.02 64.2933 7.19333 67.24 7.53999C70.1867 7.79999 73.3933 8.18999 76.86 8.70999C84.14 9.92333 91.0733 10.53 97.66 10.53C100.953 10.53 103.77 10.3567 106.11 10.01C108.45 9.57667 109.923 8.92666 110.53 8.05999C111.483 8.05999 111.787 8.44999 111.44 9.22999C111.18 10.3567 110.617 11.05 109.75 11.31C108.883 11.57 107.93 11.9167 106.89 12.35C104.897 13.0433 102.643 14.69 100.13 17.29C97.6167 19.89 95.0167 23.0967 92.33 26.91C89.73 30.7233 87.13 34.7967 84.53 39.13C81.93 43.3767 79.5033 47.58 77.25 51.74C74.9967 55.8133 73.0467 59.4533 71.4 62.66C70.5333 64.3067 69.45 66.2133 68.15 68.38C66.85 70.5467 65.42 72.54 63.86 74.36C66.2867 72.54 69.1467 69.9833 72.44 66.69C75.7333 63.3967 79.1567 59.67 82.71 55.51C86.35 51.35 89.86 47.1467 93.24 42.9C96.4467 38.74 100.043 34.32 104.03 29.64C108.017 24.96 112.09 20.4967 116.25 16.25C120.497 12.0033 124.657 8.49333 128.73 5.71999C132.89 2.85999 136.703 1.21333 140.17 0.779995C140.603 0.693329 140.95 0.649996 141.21 0.649996C141.557 0.649996 141.903 0.649996 142.25 0.649996C144.763 0.649996 146.757 1.25666 148.23 2.47C149.79 3.59666 150.613 5.50333 150.7 8.19C150.7 9.14333 150.44 10.1833 149.92 11.31C149.4 12.4367 148.577 13.1733 147.45 13.52C147.797 13.0867 148.013 12.4367 148.1 11.57C148.273 10.7033 148.403 9.96666 148.49 9.36C148.403 7.88667 147.71 6.71666 146.41 5.85C145.197 4.89666 143.333 4.41999 140.82 4.41999C137.353 4.41999 133.583 5.72 129.51 8.32C125.523 10.92 121.45 14.2567 117.29 18.33C113.217 22.4033 109.23 26.7367 105.33 31.33C101.517 35.9233 98.05 40.2133 94.93 44.2C91.6367 48.4467 88.04 52.91 84.14 57.59C80.24 62.1833 76.47 66.3433 72.83 70.07C69.19 73.7967 66.0267 76.57 63.34 78.39C62.82 78.7367 62.04 79.0833 61 79.43C59.96 79.7767 58.92 79.95 57.88 79.95C57.0133 79.95 56.19 79.69 55.41 79.17C54.63 78.7367 54.1533 77.9567 53.98 76.83C54.1533 76.9167 54.4567 77.0033 54.89 77.09C55.3233 77.1767 55.8 77.22 56.32 77.22C57.2733 77.22 58.3567 76.8733 59.57 76.18C60.7833 75.4867 61.8233 73.9267 62.69 71.5C64.5967 66.56 66.72 61.4033 69.06 56.03C71.4867 50.57 74.26 45.1967 77.38 39.91C80.5 34.5367 84.0967 29.51 88.17 24.83C92.33 20.0633 97.0533 15.86 102.34 12.22C101.56 12.22 100.737 12.35 99.87 12.61C99.0033 12.7833 98.57 12.87 98.57 12.87C96.1433 13.7367 93.63 14.9933 91.03 16.64C88.5167 18.2 86.35 19.76 84.53 21.32C82.19 23.3133 79.46 26 76.34 29.38C73.22 32.6733 69.97 36.3133 66.59 40.3C63.21 44.2 59.9167 48.1867 56.71 52.26C53.5033 56.3333 50.1233 60.45 46.57 64.61C43.1033 68.77 39.4633 72.6267 35.65 76.18C31.8367 79.6467 27.8933 82.4633 23.82 84.63C19.8333 86.7967 15.6733 87.88 11.34 87.88ZM95.3068 78.13C92.1001 78.13 90.4968 76.31 90.4968 72.67C90.4968 70.59 91.1035 68.12 92.3168 65.26C93.5301 62.3133 95.3501 59.2367 97.7768 56.03C99.5101 53.8633 101.633 51.5667 104.147 49.14C106.66 46.6267 109.39 44.2433 112.337 41.99C115.37 39.7367 118.447 37.9167 121.567 36.53C124.687 35.0567 127.72 34.32 130.667 34.32C131.967 34.32 132.877 34.5367 133.397 34.97C133.917 35.3167 134.263 35.7067 134.437 36.14C134.61 36.4867 134.61 36.7467 134.437 36.92C134.35 37.0933 134.22 37.1367 134.047 37.05C133.7 36.8767 133.007 36.79 131.967 36.79C128.847 36.79 125.12 38.3067 120.787 41.34C116.54 44.2867 112.337 48.1433 108.177 52.91C105.23 56.2033 102.803 59.4533 100.897 62.66C98.9901 65.78 97.7335 68.38 97.1268 70.46C96.9535 71.1533 96.8668 71.76 96.8668 72.28C96.8668 73.4933 97.3435 74.1 98.2968 74.1C98.9035 74.1 99.7268 73.84 100.767 73.32C101.807 72.7133 103.15 71.7167 104.797 70.33C107.397 68.0767 109.953 65.4333 112.467 62.4C115.067 59.3667 117.623 56.29 120.137 53.17C122.65 49.9633 125.077 47.0167 127.417 44.33C129.843 41.6433 132.14 39.6067 134.307 38.22C137.08 36.4 138.987 35.36 140.027 35.1C141.153 34.84 142.063 34.6667 142.757 34.58C142.323 35.1 141.37 36.3133 139.897 38.22C138.423 40.1267 136.863 42.1633 135.217 44.33C133.57 46.41 132.227 48.1433 131.187 49.53C129.627 51.7833 127.937 54.21 126.117 56.81C124.383 59.41 122.78 61.88 121.307 64.22C119.92 66.4733 118.967 68.3367 118.447 69.81C118.013 71.2833 117.797 72.3667 117.797 73.06C117.797 74.4467 118.36 75.14 119.487 75.14C120.267 75.14 121.177 74.8367 122.217 74.23C123.343 73.5367 124.47 72.7567 125.597 71.89C127.07 70.6767 128.457 69.42 129.757 68.12C131.057 66.7333 132.4 65.2167 133.787 63.57C134.133 63.57 134.307 63.83 134.307 64.35C134.307 65.13 134.133 65.7367 133.787 66.17C132.66 67.47 131.273 68.9 129.627 70.46C128.067 72.02 126.507 73.4067 124.947 74.62C123.82 75.5733 122.52 76.3967 121.047 77.09C119.573 77.7833 118.143 78.13 116.757 78.13C114.763 78.13 113.377 77.6533 112.597 76.7C111.817 75.7467 111.427 74.5333 111.427 73.06C111.427 71.3267 111.817 69.4633 112.597 67.47C113.377 65.39 114.243 63.44 115.197 61.62C114.07 63.0067 112.64 64.6967 110.907 66.69C109.173 68.5967 107.613 70.2 106.227 71.5C104.32 73.2333 102.5 74.7933 100.767 76.18C99.0335 77.48 97.2135 78.13 95.3068 78.13ZM136.328 78.52C134.161 78.52 132.645 78 131.778 76.96C130.911 75.92 130.478 74.5767 130.478 72.93C130.478 70.07 131.518 66.82 133.598 63.18C134.811 61.1 136.458 58.7167 138.538 56.03C140.705 53.2567 143.131 50.3533 145.818 47.32C148.505 44.2 151.191 41.1667 153.878 38.22H145.168L146.598 36.4H155.568C157.995 33.8867 160.248 31.5467 162.328 29.38C164.495 27.1267 166.271 25.3067 167.658 23.92C171.471 20.1067 174.981 17.2033 178.188 15.21C181.481 13.2167 184.081 12.22 185.988 12.22C184.601 13.4333 182.565 15.34 179.878 17.94C177.278 20.54 174.375 23.4433 171.168 26.65C168.048 29.8567 164.971 33.1067 161.938 36.4H170.908L169.478 38.22H160.378C158.731 40.1267 157.171 41.9033 155.698 43.55C154.311 45.1967 153.098 46.7567 152.058 48.23C147.985 53.7767 144.691 58.3267 142.178 61.88C139.665 65.4333 138.018 68.12 137.238 69.94C136.631 71.4133 136.328 72.6267 136.328 73.58C136.328 75.2267 137.108 76.05 138.668 76.05C139.968 76.05 141.355 75.6167 142.828 74.75C144.995 73.5367 147.161 71.8033 149.328 69.55C151.581 67.21 153.401 65.2167 154.788 63.57C155.135 63.57 155.308 63.83 155.308 64.35C155.308 65.13 155.135 65.7367 154.788 66.17C151.495 69.9833 148.418 73.0167 145.558 75.27C142.698 77.4367 139.621 78.52 136.328 78.52ZM157.133 78.13C153.926 78.13 152.323 76.31 152.323 72.67C152.323 70.59 152.93 68.12 154.143 65.26C155.356 62.3133 157.176 59.2367 159.603 56.03C161.336 53.8633 163.46 51.5667 165.973 49.14C168.486 46.6267 171.216 44.2433 174.163 41.99C177.196 39.7367 180.273 37.9167 183.393 36.53C186.513 35.0567 189.546 34.32 192.493 34.32C193.793 34.32 194.703 34.5367 195.223 34.97C195.743 35.3167 196.09 35.7067 196.263 36.14C196.436 36.4867 196.436 36.7467 196.263 36.92C196.176 37.0933 196.046 37.1367 195.873 37.05C195.526 36.8767 194.833 36.79 193.793 36.79C190.673 36.79 186.946 38.3067 182.613 41.34C178.366 44.2867 174.163 48.1433 170.003 52.91C167.056 56.2033 164.63 59.4533 162.723 62.66C160.816 65.78 159.56 68.38 158.953 70.46C158.78 71.1533 158.693 71.76 158.693 72.28C158.693 73.4933 159.17 74.1 160.123 74.1C160.73 74.1 161.553 73.84 162.593 73.32C163.633 72.7133 164.976 71.7167 166.623 70.33C169.223 68.0767 171.78 65.4333 174.293 62.4C176.893 59.3667 179.45 56.29 181.963 53.17C184.476 49.9633 186.903 47.0167 189.243 44.33C191.67 41.6433 193.966 39.6067 196.133 38.22C198.906 36.4 200.813 35.36 201.853 35.1C202.98 34.84 203.89 34.6667 204.583 34.58C204.15 35.1 203.196 36.3133 201.723 38.22C200.25 40.1267 198.69 42.1633 197.043 44.33C195.396 46.41 194.053 48.1433 193.013 49.53C191.453 51.7833 189.763 54.21 187.943 56.81C186.21 59.41 184.606 61.88 183.133 64.22C181.746 66.4733 180.793 68.3367 180.273 69.81C179.84 71.2833 179.623 72.3667 179.623 73.06C179.623 74.4467 180.186 75.14 181.313 75.14C182.093 75.14 183.003 74.8367 184.043 74.23C185.17 73.5367 186.296 72.7567 187.423 71.89C188.896 70.6767 190.283 69.42 191.583 68.12C192.883 66.7333 194.226 65.2167 195.613 63.57C195.96 63.57 196.133 63.83 196.133 64.35C196.133 65.13 195.96 65.7367 195.613 66.17C194.486 67.47 193.1 68.9 191.453 70.46C189.893 72.02 188.333 73.4067 186.773 74.62C185.646 75.5733 184.346 76.3967 182.873 77.09C181.4 77.7833 179.97 78.13 178.583 78.13C176.59 78.13 175.203 77.6533 174.423 76.7C173.643 75.7467 173.253 74.5333 173.253 73.06C173.253 71.3267 173.643 69.4633 174.423 67.47C175.203 65.39 176.07 63.44 177.023 61.62C175.896 63.0067 174.466 64.6967 172.733 66.69C171 68.5967 169.44 70.2 168.053 71.5C166.146 73.2333 164.326 74.7933 162.593 76.18C160.86 77.48 159.04 78.13 157.133 78.13Z" fill="#680001"/>
</svg>
