<svg width="319" height="95" viewBox="0 0 319 95" fill="none" xmlns="http://www.w3.org/2000/svg">
<path d="M33.67 94.06C29.25 94.06 25.2633 92.76 21.71 90.16C18.2433 87.56 16.0333 83.79 15.08 78.85C9.79333 77.3767 5.98 74.69 3.64 70.79C1.3 66.8033 0.13 62.21 0.13 57.01C0.13 52.07 1.04 46.9567 2.86 41.67C4.76667 36.3833 7.41 31.4867 10.79 26.98C14.17 22.3867 18.2 18.7033 22.88 15.93C27.56 13.07 32.7167 11.64 38.35 11.64C41.9033 11.64 44.72 12.5067 46.8 14.24C48.9667 15.8867 50.5267 18.0533 51.48 20.74C52.4333 23.34 52.91 26.0267 52.91 28.8C52.91 29.6667 52.8667 30.5333 52.78 31.4C52.6933 32.18 52.5633 33.0033 52.39 33.87C53.43 33.35 54.47 32.83 55.51 32.31C56.6367 31.79 57.7633 31.3133 58.89 30.88L60.71 30.1C62.1833 26.5467 63.7433 23.08 65.39 19.7C67.0367 16.2333 68.9 13.0267 70.98 10.08C72.7133 7.65333 74.7933 5.48666 77.22 3.57999C79.7333 1.67333 82.4633 0.719993 85.41 0.719993C88.0967 0.719993 90.0033 1.32666 91.13 2.53999C92.2567 3.66666 92.82 5.09666 92.82 6.83C92.82 9.25666 91.9967 11.5533 90.35 13.72C88.79 15.8867 86.7533 17.9233 84.24 19.83C81.7267 21.65 78.9967 23.3833 76.05 25.03C73.19 26.59 70.4167 27.9767 67.73 29.19C65.9967 34.39 64.1767 39.6333 62.27 44.92C60.45 50.12 58.1967 55.06 55.51 59.74C52.8233 64.3333 49.27 68.4067 44.85 71.96C41.5567 74.6467 37.96 76.64 34.06 77.94C30.2467 79.24 26.5633 79.89 23.01 79.89C22.4033 79.89 21.7967 79.8467 21.19 79.76C20.67 79.76 20.15 79.7167 19.63 79.63C20.3233 83.0967 21.7967 86.0433 24.05 88.47C26.3033 90.9833 29.7267 92.24 34.32 92.24C35.7067 92.24 37.0067 92.0233 38.22 91.59C39.4333 91.2433 40.82 90.55 42.38 89.51C42.38 89.51 42.38 89.4667 42.38 89.38C42.4667 89.38 42.5533 89.38 42.64 89.38C42.9 89.38 43.03 89.64 43.03 90.16C43.03 90.7667 42.51 91.3733 41.47 91.98C40.5167 92.5867 39.3033 93.0633 37.83 93.41C36.3567 93.8433 34.97 94.06 33.67 94.06ZM68.64 26.59C72.02 24.9433 75.3567 23.1233 78.65 21.13C81.9433 19.05 84.6733 16.84 86.84 14.5C89.0067 12.0733 90.09 9.56 90.09 6.96C90.09 5.74666 89.7867 4.70667 89.18 3.84C88.66 2.88666 87.6633 2.40999 86.19 2.40999C84.5433 2.40999 82.94 2.97333 81.38 4.1C79.9067 5.14 78.6067 6.39666 77.48 7.86999C76.3533 9.34333 75.4 10.7733 74.62 12.16C73.4933 14.3267 72.41 16.6667 71.37 19.18C70.4167 21.6067 69.5067 24.0767 68.64 26.59ZM14.82 76.9C14.7333 76.4667 14.69 76.0333 14.69 75.6C14.69 75.1667 14.69 74.7767 14.69 74.43C14.69 68.8833 16.2067 63.77 19.24 59.09C22.2733 54.41 26.3467 50.12 31.46 46.22C36.66 42.32 42.4233 38.7667 48.75 35.56C49.27 33.5667 49.53 31.53 49.53 29.45C49.53 26.9367 49.1833 24.4667 48.49 22.04C47.7967 19.6133 46.5833 17.5767 44.85 15.93C43.2033 14.2833 40.9067 13.46 37.96 13.46C33.4533 13.46 29.2067 14.89 25.22 17.75C21.32 20.61 17.8967 24.3367 14.95 28.93C12.0033 33.4367 9.66333 38.3333 7.93 43.62C6.28333 48.82 5.46 53.76 5.46 58.44C5.46 62.86 6.15333 66.76 7.54 70.14C8.92667 73.4333 11.3533 75.6867 14.82 76.9ZM19.37 77.68H19.89C22.75 77.68 26 76.8567 29.64 75.21C33.3667 73.5633 37.31 70.5733 41.47 66.24C45.8033 61.7333 49.27 56.5767 51.87 50.77C54.5567 44.8767 57.1133 38.8967 59.54 32.83L51.61 36.99C49.9633 42.2767 47.1467 47.39 43.16 52.33C39.26 57.27 35.0567 61.3867 30.55 64.68C29.9433 65.1133 29.38 65.33 28.86 65.33C28.4267 65.33 28.21 65.2 28.21 64.94C28.21 64.68 28.2967 64.4633 28.47 64.29C32.2833 61.43 36.0533 57.79 39.78 53.37C43.5067 48.95 46.1933 44.1833 47.84 39.07C42.9 41.93 38.2633 45.2233 33.93 48.95C29.5967 52.59 26.0433 56.5767 23.27 60.91C20.5833 65.1567 19.24 69.7067 19.24 74.56C19.24 75.08 19.24 75.6 19.24 76.12C19.24 76.64 19.2833 77.16 19.37 77.68ZM85.7726 73.52C84.2126 73.52 83.0859 73.13 82.3926 72.35C81.6992 71.57 81.3526 70.5733 81.3526 69.36C81.3526 68.32 81.6126 66.8467 82.1326 64.94C83.2592 61.82 84.9059 58.6567 87.0726 55.45C89.2392 52.1567 91.5792 49.0367 94.0926 46.09C96.6926 43.0567 99.1626 40.3267 101.503 37.9C103.843 35.3867 105.706 33.35 107.093 31.79C105.793 31.79 104.363 32.1367 102.803 32.83C101.329 33.5233 99.8126 34.3467 98.2526 35.3C94.5259 37.9 90.7559 40.9767 86.9426 44.53C83.2159 48.0833 79.7059 51.7233 76.4126 55.45C73.2059 59.1767 70.4759 62.6 68.2226 65.72C65.9692 68.84 64.5392 71.2667 63.9326 73C62.5459 73 61.8526 72.1333 61.8526 70.4C61.8526 68.9267 62.2859 67.1067 63.1526 64.94C64.0192 62.6867 65.1026 60.4333 66.4026 58.18C69.3492 53.24 72.9459 47.91 77.1926 42.19C81.5259 36.3833 85.9892 30.9667 90.5826 25.94C94.6559 21.4333 99.0759 17.36 103.843 13.72C108.609 10.08 113.593 7.52333 118.793 6.04999C119.573 5.79 120.483 5.57333 121.523 5.39999C122.563 5.22666 123.646 5.14 124.773 5.14C126.853 5.14 128.629 5.44333 130.103 6.04999C130.796 6.39666 131.489 6.87333 132.183 7.48C132.876 8 133.353 8.78 133.613 9.82C132.659 9.04 131.576 8.47666 130.363 8.13C129.149 7.69667 127.676 7.48 125.943 7.48C122.563 7.48 119.096 8.47666 115.543 10.47C112.076 12.3767 108.739 14.7167 105.533 17.49C102.413 20.2633 99.6392 23.0367 97.2126 25.81C94.8726 28.4967 93.0526 30.62 91.7526 32.18C88.3726 36.34 85.3826 40.24 82.7826 43.88C80.2692 47.4333 78.1459 50.4667 76.4126 52.98C79.8792 49.1667 83.6492 45.3533 87.7226 41.54C91.8826 37.64 95.6959 34.5633 99.1626 32.31C100.289 31.53 101.459 30.88 102.673 30.36C103.886 29.84 105.143 29.58 106.443 29.58C108.783 29.58 109.953 30.49 109.953 32.31C109.953 33.6967 109.129 35.3433 107.483 37.25C104.449 40.7167 101.373 44.5733 98.2526 48.82C95.1326 52.98 92.4892 57.14 90.3226 61.3C89.9759 61.9067 89.3692 63.12 88.5026 64.94C87.7226 66.6733 87.3326 68.1467 87.3326 69.36C87.3326 70.4 87.8092 70.92 88.7626 70.92C90.7559 70.92 93.1826 69.6633 96.0426 67.15C98.9026 64.55 101.676 61.69 104.363 58.57C104.709 58.57 104.883 58.83 104.883 59.35C104.883 60.13 104.709 60.7367 104.363 61.17C103.149 62.47 101.589 64.1167 99.6826 66.11C97.8626 68.0167 95.7826 69.75 93.4426 71.31C91.1026 72.7833 88.5459 73.52 85.7726 73.52ZM107.215 73C105.135 73 103.662 72.5233 102.795 71.57C101.929 70.6167 101.495 69.4033 101.495 67.93C101.495 66.4567 101.842 64.8533 102.535 63.12C103.142 61.3 103.922 59.5233 104.875 57.79C106.522 55.0167 108.385 52.2433 110.465 49.47C112.632 46.61 114.799 43.9667 116.965 41.54C119.219 39.1133 121.212 37.0333 122.945 35.3C124.592 33.6533 126.282 32.44 128.015 31.66C129.749 30.88 131.222 30.36 132.435 30.1C133.735 29.7533 134.385 29.58 134.385 29.58C132.479 31.7467 129.879 34.8233 126.585 38.81C123.379 42.7967 120.129 47.0433 116.835 51.55C116.489 51.9833 115.839 52.8933 114.885 54.28C114.019 55.6667 113.065 57.2267 112.025 58.96C110.985 60.6067 110.075 62.2533 109.295 63.9C108.602 65.46 108.255 66.7167 108.255 67.67C108.255 68.6233 108.775 69.0567 109.815 68.97C110.942 68.8833 112.415 68.06 114.235 66.5C116.055 64.94 118.005 63.0333 120.085 60.78C122.165 58.5267 124.115 56.3167 125.935 54.15C127.842 51.8967 129.402 50.0333 130.615 48.56C131.569 47.4333 132.739 46.0467 134.125 44.4C135.512 42.6667 136.942 40.89 138.415 39.07C139.889 37.25 141.232 35.6467 142.445 34.26C143.832 32.7 145.305 31.6167 146.865 31.01C148.425 30.3167 149.769 29.9267 150.895 29.84C152.109 29.6667 152.715 29.58 152.715 29.58C152.022 30.4467 150.635 32.1367 148.555 34.65C146.562 37.1633 144.309 40.1533 141.795 43.62C139.282 47 136.899 50.5533 134.645 54.28C132.392 57.92 130.659 61.3867 129.445 64.68C128.839 66.1533 128.535 67.3667 128.535 68.32C128.535 69.1867 128.752 69.7933 129.185 70.14C129.619 70.4 130.095 70.53 130.615 70.53C131.829 70.53 133.172 70.01 134.645 68.97C136.205 67.93 137.679 66.7167 139.065 65.33C140.539 63.8567 141.839 62.47 142.965 61.17C144.092 59.87 144.829 59.0033 145.175 58.57C145.522 58.57 145.695 58.83 145.695 59.35C145.695 60.13 145.522 60.7367 145.175 61.17C143.875 62.73 142.272 64.42 140.365 66.24C138.545 68.06 136.595 69.6633 134.515 71.05C132.522 72.35 130.529 73 128.535 73C126.369 73 124.852 72.48 123.985 71.44C123.119 70.4 122.685 69.1 122.685 67.54C122.685 66.0667 122.989 64.4633 123.595 62.73C124.202 60.91 124.939 59.22 125.805 57.66C124.765 58.7 123.509 60.0867 122.035 61.82C120.649 63.4667 119.089 65.1567 117.355 66.89C115.622 68.6233 113.889 70.0967 112.155 71.31C110.422 72.4367 108.775 73 107.215 73ZM156.024 73.91C154.291 73.91 152.601 73.7367 150.954 73.39C149.394 73.0433 148.008 72.4367 146.794 71.57C145.841 70.8767 145.061 69.9233 144.454 68.71C143.761 67.4967 143.414 65.9367 143.414 64.03C143.414 61.7767 143.978 60.0433 145.104 58.83C146.144 57.6167 147.271 57.01 148.484 57.01C149.438 55.7967 150.738 54.1067 152.384 51.94C154.031 49.6867 155.851 47.2167 157.844 44.53C159.924 41.8433 162.048 39.1567 164.214 36.47C166.381 33.6967 168.418 31.2267 170.324 29.06C171.538 27.8467 172.794 26.5467 174.094 25.16C175.481 23.7733 176.998 22.6033 178.644 21.65C180.378 20.61 182.198 20.09 184.104 20.09C185.578 20.09 186.618 20.4367 187.224 21.13C187.918 21.8233 188.264 22.6467 188.264 23.6C188.264 24.12 188.134 24.5967 187.874 25.03C186.921 24.8567 185.578 25.03 183.844 25.55C182.111 25.9833 180.204 26.8067 178.124 28.02C175.871 29.4067 173.574 31.14 171.234 33.22C171.148 34.26 171.018 35.8633 170.844 38.03C170.758 40.11 170.628 42.4933 170.454 45.18C170.281 47.78 169.978 50.4233 169.544 53.11C169.198 55.71 168.721 58.0067 168.114 60C167.681 61.3867 166.988 62.9467 166.034 64.68C165.081 66.3267 163.781 67.8867 162.134 69.36C160.574 70.7467 158.624 71.7 156.284 72.22C159.404 72.22 162.004 71.7433 164.084 70.79C166.164 69.8367 167.898 68.7533 169.284 67.54C170.758 66.24 171.928 65.2 172.794 64.42C173.488 63.7267 174.441 62.73 175.654 61.43C176.868 60.13 177.734 59.1767 178.254 58.57C178.601 58.57 178.774 58.83 178.774 59.35C178.774 60.13 178.601 60.7367 178.254 61.17C174.614 65.07 171.581 67.93 169.154 69.75C166.988 71.3967 164.778 72.48 162.524 73C160.271 73.6067 158.104 73.91 156.024 73.91ZM151.474 71.44C152.948 71.44 154.291 70.8767 155.504 69.75C156.804 68.5367 157.974 67.15 159.014 65.59C160.054 63.9433 160.878 62.4267 161.484 61.04C162.438 58.96 163.434 56.3167 164.474 53.11C165.514 49.9033 166.511 46.6533 167.464 43.36C168.418 39.98 169.198 37.0767 169.804 34.65C167.378 36.99 164.951 39.5467 162.524 42.32C160.184 45.0933 158.018 47.7367 156.024 50.25C154.031 52.7633 152.384 54.8433 151.084 56.49C149.958 57.9633 149.091 59.5233 148.484 61.17C147.878 62.8167 147.574 64.3767 147.574 65.85C147.574 67.4967 147.921 68.84 148.614 69.88C149.308 70.92 150.261 71.44 151.474 71.44ZM181.232 73.52C179.066 73.52 177.549 73 176.682 71.96C175.816 70.92 175.382 69.5767 175.382 67.93C175.382 65.07 176.422 61.82 178.502 58.18C179.716 56.1 181.362 53.7167 183.442 51.03C185.609 48.2567 188.036 45.3533 190.722 42.32C193.409 39.2 196.096 36.1667 198.782 33.22H190.072L191.502 31.4H200.472C202.899 28.8867 205.152 26.5467 207.232 24.38C209.399 22.1267 211.176 20.3067 212.562 18.92C216.376 15.1067 219.886 12.2033 223.092 10.21C226.386 8.21666 228.986 7.21999 230.892 7.21999C229.506 8.43333 227.469 10.34 224.782 12.94C222.182 15.54 219.279 18.4433 216.072 21.65C212.952 24.8567 209.876 28.1067 206.842 31.4H215.812L214.382 33.22H205.282C203.636 35.1267 202.076 36.9033 200.602 38.55C199.216 40.1967 198.002 41.7567 196.962 43.23C192.889 48.7767 189.596 53.3267 187.082 56.88C184.569 60.4333 182.922 63.12 182.142 64.94C181.536 66.4133 181.232 67.6267 181.232 68.58C181.232 70.2267 182.012 71.05 183.572 71.05C184.872 71.05 186.259 70.6167 187.732 69.75C189.899 68.5367 192.066 66.8033 194.232 64.55C196.486 62.21 198.306 60.2167 199.692 58.57C200.039 58.57 200.212 58.83 200.212 59.35C200.212 60.13 200.039 60.7367 199.692 61.17C196.399 64.9833 193.322 68.0167 190.462 70.27C187.602 72.4367 184.526 73.52 181.232 73.52ZM204.767 73.65C202.254 73.65 200.477 73.0433 199.437 71.83C198.311 70.53 197.747 68.9267 197.747 67.02C197.747 64.5933 198.441 61.7333 199.827 58.44C201.301 55.1467 203.251 51.81 205.677 48.43C208.104 45.05 210.834 41.93 213.867 39.07C216.901 36.1233 219.977 33.7833 223.097 32.05C226.304 30.23 229.381 29.32 232.327 29.32C234.494 29.32 236.054 29.8833 237.007 31.01C237.961 32.1367 238.437 33.61 238.437 35.43C238.437 37.8567 237.744 40.76 236.357 44.14C234.971 47.4333 233.064 50.8133 230.637 54.28C228.297 57.66 225.654 60.8233 222.707 63.77C219.847 66.7167 216.857 69.1 213.737 70.92C210.617 72.74 207.627 73.65 204.767 73.65ZM206.327 71.18C208.147 71.18 210.314 70.27 212.827 68.45C215.427 66.5433 218.071 64.1167 220.757 61.17C223.444 58.2233 225.914 55.1033 228.167 51.81C230.507 48.43 232.371 45.2667 233.757 42.32C235.231 39.2867 235.967 36.8167 235.967 34.91C235.967 32.83 234.971 31.79 232.977 31.79C231.331 31.79 229.251 32.7867 226.737 34.78C224.311 36.6867 221.754 39.1567 219.067 42.19C216.467 45.2233 213.997 48.43 211.657 51.81C209.317 55.19 207.411 58.3967 205.937 61.43C204.551 64.4633 203.857 66.8467 203.857 68.58C203.857 70.3133 204.681 71.18 206.327 71.18ZM236.073 73C233.993 73 232.52 72.5667 231.653 71.7C230.786 70.7467 230.353 69.5767 230.353 68.19C230.353 66.7167 230.7 65.1133 231.393 63.38C232.086 61.6467 232.91 59.9133 233.863 58.18C235.51 55.4067 237.546 52.6333 239.973 49.86C242.486 47.0867 245.043 44.53 247.643 42.19C250.33 39.85 252.67 37.9 254.663 36.34C256.57 34.6933 258.563 33.3933 260.643 32.44C259.516 32.5267 258.39 32.6133 257.263 32.7C256.223 32.7867 255.226 32.8733 254.273 32.96C252.453 33.0467 250.763 33.2633 249.203 33.61C247.73 33.87 246.343 34.39 245.043 35.17C245.476 33.6967 246.386 32.4833 247.773 31.53C249.246 30.49 250.72 29.9267 252.193 29.84C253.666 29.6667 255.486 29.6667 257.653 29.84C259.82 30.0133 261.813 30.1 263.633 30.1C264.153 30.1 264.76 30.0567 265.453 29.97C266.233 29.8833 266.84 29.6667 267.273 29.32C267.273 30.1867 266.623 30.9233 265.323 31.53C264.803 31.79 264.283 32.05 263.763 32.31C263.243 32.57 262.81 32.83 262.463 33.09C261.596 33.6967 260.73 34.39 259.863 35.17C259.083 35.95 258.26 36.7733 257.393 37.64C250.72 44.14 244.913 51.7667 239.973 60.52C239.193 61.9067 238.5 63.25 237.893 64.55C237.373 65.7633 237.113 66.76 237.113 67.54C237.113 68.4933 237.633 68.97 238.673 68.97C240.233 68.97 242.183 68.2333 244.523 66.76C246.863 65.2867 249.42 63.2933 252.193 60.78C254.966 58.2667 257.696 55.4067 260.383 52.2C261.336 51.0733 262.55 49.4267 264.023 47.26C265.583 45.0933 267.013 42.97 268.313 40.89C269.7 38.81 270.61 37.38 271.043 36.6C273.036 33.22 274.986 31.1833 276.893 30.49C278.886 29.71 280.706 29.4067 282.353 29.58C281.746 30.4467 280.62 31.8767 278.973 33.87C277.413 35.8633 275.55 38.1167 273.383 40.63C271.303 43.1433 269.18 45.6567 267.013 48.17C264.933 50.5967 263.026 52.7633 261.293 54.67C259.646 56.5767 258.476 57.92 257.783 58.7C255.53 61.04 253.19 63.3367 250.763 65.59C248.423 67.7567 245.996 69.5333 243.483 70.92C241.056 72.3067 238.586 73 236.073 73ZM271.227 73.13C268.02 73.13 266.417 71.31 266.417 67.67C266.417 65.59 267.023 63.12 268.237 60.26C269.45 57.3133 271.27 54.2367 273.697 51.03C275.43 48.8633 277.553 46.5667 280.067 44.14C282.58 41.6267 285.31 39.2433 288.257 36.99C291.29 34.7367 294.367 32.9167 297.487 31.53C300.607 30.0567 303.64 29.32 306.587 29.32C307.887 29.32 308.797 29.5367 309.317 29.97C309.837 30.3167 310.183 30.7067 310.357 31.14C310.53 31.4867 310.53 31.7467 310.357 31.92C310.27 32.0933 310.14 32.1367 309.967 32.05C309.62 31.8767 308.927 31.79 307.887 31.79C304.767 31.79 301.04 33.3067 296.707 36.34C292.46 39.2867 288.257 43.1433 284.097 47.91C281.15 51.2033 278.723 54.4533 276.817 57.66C274.91 60.78 273.653 63.38 273.047 65.46C272.873 66.1533 272.787 66.76 272.787 67.28C272.787 68.4933 273.263 69.1 274.217 69.1C274.823 69.1 275.647 68.84 276.687 68.32C277.727 67.7133 279.07 66.7167 280.717 65.33C283.317 63.0767 285.873 60.4333 288.387 57.4C290.987 54.3667 293.543 51.29 296.057 48.17C298.57 44.9633 300.997 42.0167 303.337 39.33C305.763 36.6433 308.06 34.6067 310.227 33.22C313 31.4 314.907 30.36 315.947 30.1C317.073 29.84 317.983 29.6667 318.677 29.58C318.243 30.1 317.29 31.3133 315.817 33.22C314.343 35.1267 312.783 37.1633 311.137 39.33C309.49 41.41 308.147 43.1433 307.107 44.53C305.547 46.7833 303.857 49.21 302.037 51.81C300.303 54.41 298.7 56.88 297.227 59.22C295.84 61.4733 294.887 63.3367 294.367 64.81C293.933 66.2833 293.717 67.3667 293.717 68.06C293.717 69.4467 294.28 70.14 295.407 70.14C296.187 70.14 297.097 69.8367 298.137 69.23C299.263 68.5367 300.39 67.7567 301.517 66.89C302.99 65.6767 304.377 64.42 305.677 63.12C306.977 61.7333 308.32 60.2167 309.707 58.57C310.053 58.57 310.227 58.83 310.227 59.35C310.227 60.13 310.053 60.7367 309.707 61.17C308.58 62.47 307.193 63.9 305.547 65.46C303.987 67.02 302.427 68.4067 300.867 69.62C299.74 70.5733 298.44 71.3967 296.967 72.09C295.493 72.7833 294.063 73.13 292.677 73.13C290.683 73.13 289.297 72.6533 288.517 71.7C287.737 70.7467 287.347 69.5333 287.347 68.06C287.347 66.3267 287.737 64.4633 288.517 62.47C289.297 60.39 290.163 58.44 291.117 56.62C289.99 58.0067 288.56 59.6967 286.827 61.69C285.093 63.5967 283.533 65.2 282.147 66.5C280.24 68.2333 278.42 69.7933 276.687 71.18C274.953 72.48 273.133 73.13 271.227 73.13Z" fill="#f5f2e9"/>
</svg>
